<?xml version="1.0" encoding="UTF-8" standalone="yes"?>
<svg xmlns="http://www.w3.org/2000/svg" xmlns:xlink="http://www.w3.org/1999/xlink" width="369.751pt" height="84.789pt" version="1.1" viewBox="4549.248 4539.253 369.751 84.789">
  <!--
	Exported with Concepts: Smarter Sketching
	Version: 4194 on iOS 18.5
	https://concepts.app/
	-->
  <title>F8FB58D9-B6E0-4470-A4CA-BFB959FEF4B7</title>
  <desc>Drawing exported from Concepts: Smarter Sketching</desc>
  <defs></defs>
  <g id="Pen" opacity="1.000">
    <path id="STROKE_8866cd6d-f746-4b4e-beeb-1d896c251679" opacity="1.000" fill="none" stroke="#171612" stroke-width="6.252" stroke-opacity="1.000" stroke-linecap="round" stroke-linejoin="round" d="M 4556.885 4616.390 Q 4558.194 4615.758 4559.361 4615.159 Q 4560.017 4614.871 4563.934 4613.006 Q 4567.851 4611.142 4570.685 4609.812 Q 4573.519 4608.483 4577.397 4606.747 Q 4581.276 4605.011 4593.005 4600.210 Q 4604.733 4595.410 4608.695 4593.962 Q 4612.657 4592.514 4617.216 4590.968 Q 4621.776 4589.422 4627.707 4587.596 Q 4633.637 4585.771 4638.456 4584.434 Q 4643.275 4583.097 4650.059 4581.415 Q 4656.843 4579.732 4666.541 4577.676 Q 4676.238 4575.619 4681.627 4574.640 Q 4687.016 4573.660 4690.802 4573.032 Q 4694.589 4572.403 4703.094 4571.172 Q 4711.598 4569.941 4719.822 4568.974 Q 4728.047 4568.005 4741.053 4566.885 Q 4754.058 4565.765 4765.056 4565.186 Q 4776.053 4564.607 4786.450 4564.379 Q 4796.847 4564.150 4803.092 4564.184 Q 4809.337 4564.217 4824.027 4564.816 Q 4838.717 4565.416 4844.191 4565.865 Q 4849.665 4566.315 4858.981 4567.418 Q 4868.298 4568.521 4872.875 4569.219 Q 4877.453 4569.918 4882.055 4570.697 Q 4886.656 4571.476 4887.692 4571.672 Q 4888.729 4571.868 4892.295 4572.552 Q 4895.861 4573.235 4898.921 4573.875 Q 4901.981 4574.515 4902.461 4574.642 Q 4902.940 4574.768 4905.744 4575.397 Q 4908.548 4576.027 4910.349 4576.391 "></path>
    <path id="STROKE_56bf6081-9500-43dc-b4fe-d42ec7dbc074" opacity="1.000" fill="none" stroke="#171612" stroke-width="7.058" stroke-opacity="1.000" stroke-linecap="round" stroke-linejoin="round" d="M 4911.350 4575.390 L 4910.217 4573.974 Q 4910.032 4573.840 4908.934 4572.677 Q 4907.836 4571.514 4907.698 4571.379 Q 4907.561 4571.244 4906.645 4570.159 Q 4905.728 4569.073 4904.532 4567.674 Q 4903.336 4566.275 4899.966 4562.218 Q 4896.595 4558.161 4890.629 4550.690 Q 4890.588 4550.581 4887.859 4546.906 "></path>
    <path id="STROKE_73d1925e-2fba-4dfd-ad19-eee9f5600740" opacity="1.000" fill="none" stroke="#171612" stroke-width="7.058" stroke-opacity="1.000" stroke-linecap="round" stroke-linejoin="round" d="M 4910.849 4578.390 Q 4909.563 4579.778 4903.274 4586.492 Q 4896.985 4593.207 4893.965 4596.380 Q 4890.944 4599.553 4889.285 4601.290 Q 4887.626 4603.027 4881.844 4609.357 Q 4881.726 4609.450 4880.355 4610.890 "></path>
  </g>
</svg>